<svg xmlns="http://www.w3.org/2000/svg" xmlns:xlink="http://www.w3.org/1999/xlink" width="500" zoomAndPan="magnify" viewBox="0 0 375 374.999991" height="500" preserveAspectRatio="xMidYMid meet" version="1.2"><defs><clipPath id="08f8798e16"><path d="M 103 87 L 210 87 L 210 244 L 103 244 Z M 103 87 "/></clipPath><clipPath id="86ba41416d"><path d="M 56.703125 128.605469 L 183.144531 75.214844 L 241.492188 213.402344 L 115.050781 266.792969 Z M 56.703125 128.605469 "/></clipPath><clipPath id="1a46bdfbfd"><path d="M 56.703125 128.605469 L 183.144531 75.214844 L 241.492188 213.402344 L 115.050781 266.792969 Z M 56.703125 128.605469 "/></clipPath><clipPath id="95184a4713"><path d="M 56.703125 128.605469 L 183.144531 75.214844 L 241.492188 213.402344 L 115.050781 266.792969 Z M 56.703125 128.605469 "/></clipPath><clipPath id="af9d71366c"><path d="M 101 86 L 207 86 L 207 243 L 101 243 Z M 101 86 "/></clipPath><clipPath id="6f4c9d0b3d"><path d="M 56.703125 128.605469 L 183.144531 75.214844 L 241.492188 213.402344 L 115.050781 266.792969 Z M 56.703125 128.605469 "/></clipPath><clipPath id="844672d487"><path d="M 56.703125 128.605469 L 183.144531 75.214844 L 241.492188 213.402344 L 115.050781 266.792969 Z M 56.703125 128.605469 "/></clipPath><clipPath id="166c73f98a"><path d="M 56.703125 128.605469 L 183.144531 75.214844 L 241.492188 213.402344 L 115.050781 266.792969 Z M 56.703125 128.605469 "/></clipPath><clipPath id="e2b2a8dd1a"><path d="M 99 85 L 208 85 L 208 244 L 99 244 Z M 99 85 "/></clipPath><clipPath id="97b0d7e373"><path d="M 56.703125 128.605469 L 183.144531 75.214844 L 241.492188 213.402344 L 115.050781 266.792969 Z M 56.703125 128.605469 "/></clipPath><clipPath id="3fa841343d"><path d="M 56.703125 128.605469 L 183.144531 75.214844 L 241.492188 213.402344 L 115.050781 266.792969 Z M 56.703125 128.605469 "/></clipPath><clipPath id="ee1149cc9a"><path d="M 56.703125 128.605469 L 183.144531 75.214844 L 241.492188 213.402344 L 115.050781 266.792969 Z M 56.703125 128.605469 "/></clipPath><clipPath id="9abf3f2217"><path d="M 103 88 L 205 88 L 205 241 L 103 241 Z M 103 88 "/></clipPath><clipPath id="30ad0339db"><path d="M 56.703125 128.605469 L 183.144531 75.214844 L 241.492188 213.402344 L 115.050781 266.792969 Z M 56.703125 128.605469 "/></clipPath><clipPath id="39b419fca3"><path d="M 56.703125 128.605469 L 183.144531 75.214844 L 241.492188 213.402344 L 115.050781 266.792969 Z M 56.703125 128.605469 "/></clipPath><clipPath id="5cd6c423d9"><path d="M 56.703125 128.605469 L 183.144531 75.214844 L 241.492188 213.402344 L 115.050781 266.792969 Z M 56.703125 128.605469 "/></clipPath><clipPath id="969d97312d"><path d="M 106 91 L 203 91 L 203 239 L 106 239 Z M 106 91 "/></clipPath><clipPath id="80bafb8bd3"><path d="M 56.703125 128.605469 L 183.144531 75.214844 L 241.492188 213.402344 L 115.050781 266.792969 Z M 56.703125 128.605469 "/></clipPath><clipPath id="4c9a0856e6"><path d="M 56.703125 128.605469 L 183.144531 75.214844 L 241.492188 213.402344 L 115.050781 266.792969 Z M 56.703125 128.605469 "/></clipPath><clipPath id="099964a331"><path d="M 56.703125 128.605469 L 183.144531 75.214844 L 241.492188 213.402344 L 115.050781 266.792969 Z M 56.703125 128.605469 "/></clipPath><clipPath id="77208b7888"><path d="M 106 107 L 179 107 L 179 232 L 106 232 Z M 106 107 "/></clipPath><clipPath id="8ff271a953"><path d="M 56.703125 128.605469 L 183.144531 75.214844 L 241.492188 213.402344 L 115.050781 266.792969 Z M 56.703125 128.605469 "/></clipPath><clipPath id="b03835939f"><path d="M 56.703125 128.605469 L 183.144531 75.214844 L 241.492188 213.402344 L 115.050781 266.792969 Z M 56.703125 128.605469 "/></clipPath><clipPath id="3fdf130bcd"><path d="M 56.703125 128.605469 L 183.144531 75.214844 L 241.492188 213.402344 L 115.050781 266.792969 Z M 56.703125 128.605469 "/></clipPath><clipPath id="2e53ef80af"><path d="M 167 107 L 180 107 L 180 180 L 167 180 Z M 167 107 "/></clipPath><clipPath id="3e24b0635b"><path d="M 56.703125 128.605469 L 183.144531 75.214844 L 241.492188 213.402344 L 115.050781 266.792969 Z M 56.703125 128.605469 "/></clipPath><clipPath id="8db7f2edf9"><path d="M 56.703125 128.605469 L 183.144531 75.214844 L 241.492188 213.402344 L 115.050781 266.792969 Z M 56.703125 128.605469 "/></clipPath><clipPath id="d03eaab942"><path d="M 56.703125 128.605469 L 183.144531 75.214844 L 241.492188 213.402344 L 115.050781 266.792969 Z M 56.703125 128.605469 "/></clipPath><clipPath id="cf17fbe8f4"><path d="M 110 215 L 152 215 L 152 231 L 110 231 Z M 110 215 "/></clipPath><clipPath id="aa33bc4a48"><path d="M 56.703125 128.605469 L 183.144531 75.214844 L 241.492188 213.402344 L 115.050781 266.792969 Z M 56.703125 128.605469 "/></clipPath><clipPath id="7be9b37576"><path d="M 56.703125 128.605469 L 183.144531 75.214844 L 241.492188 213.402344 L 115.050781 266.792969 Z M 56.703125 128.605469 "/></clipPath><clipPath id="a7104a3022"><path d="M 56.703125 128.605469 L 183.144531 75.214844 L 241.492188 213.402344 L 115.050781 266.792969 Z M 56.703125 128.605469 "/></clipPath><clipPath id="deee4e928f"><path d="M 140 153 L 166 153 L 166 211 L 140 211 Z M 140 153 "/></clipPath><clipPath id="65ee8a9294"><path d="M 56.703125 128.605469 L 183.144531 75.214844 L 241.492188 213.402344 L 115.050781 266.792969 Z M 56.703125 128.605469 "/></clipPath><clipPath id="83241bfb41"><path d="M 56.703125 128.605469 L 183.144531 75.214844 L 241.492188 213.402344 L 115.050781 266.792969 Z M 56.703125 128.605469 "/></clipPath><clipPath id="a700bec1a5"><path d="M 56.703125 128.605469 L 183.144531 75.214844 L 241.492188 213.402344 L 115.050781 266.792969 Z M 56.703125 128.605469 "/></clipPath><clipPath id="2aaaaa2eba"><path d="M 179 150 L 197 150 L 197 168 L 179 168 Z M 179 150 "/></clipPath><clipPath id="4114bbb5ab"><path d="M 56.703125 128.605469 L 183.144531 75.214844 L 241.492188 213.402344 L 115.050781 266.792969 Z M 56.703125 128.605469 "/></clipPath><clipPath id="22e5e0b7ee"><path d="M 56.703125 128.605469 L 183.144531 75.214844 L 241.492188 213.402344 L 115.050781 266.792969 Z M 56.703125 128.605469 "/></clipPath><clipPath id="813df9c030"><path d="M 56.703125 128.605469 L 183.144531 75.214844 L 241.492188 213.402344 L 115.050781 266.792969 Z M 56.703125 128.605469 "/></clipPath><clipPath id="0ee77f3070"><path d="M 181 151 L 197 151 L 197 168 L 181 168 Z M 181 151 "/></clipPath><clipPath id="1f925c771b"><path d="M 56.703125 128.605469 L 183.144531 75.214844 L 241.492188 213.402344 L 115.050781 266.792969 Z M 56.703125 128.605469 "/></clipPath><clipPath id="31aed91c86"><path d="M 56.703125 128.605469 L 183.144531 75.214844 L 241.492188 213.402344 L 115.050781 266.792969 Z M 56.703125 128.605469 "/></clipPath><clipPath id="7b1ab50715"><path d="M 56.703125 128.605469 L 183.144531 75.214844 L 241.492188 213.402344 L 115.050781 266.792969 Z M 56.703125 128.605469 "/></clipPath><clipPath id="0fc0082bf4"><path d="M 178 150 L 195 150 L 195 165 L 178 165 Z M 178 150 "/></clipPath><clipPath id="cb608c0387"><path d="M 56.703125 128.605469 L 183.144531 75.214844 L 241.492188 213.402344 L 115.050781 266.792969 Z M 56.703125 128.605469 "/></clipPath><clipPath id="5d436fa095"><path d="M 56.703125 128.605469 L 183.144531 75.214844 L 241.492188 213.402344 L 115.050781 266.792969 Z M 56.703125 128.605469 "/></clipPath><clipPath id="ceba7a0b12"><path d="M 56.703125 128.605469 L 183.144531 75.214844 L 241.492188 213.402344 L 115.050781 266.792969 Z M 56.703125 128.605469 "/></clipPath><clipPath id="1da7f913f1"><path d="M 177 149 L 198 149 L 198 169 L 177 169 Z M 177 149 "/></clipPath><clipPath id="8736a23639"><path d="M 56.703125 128.605469 L 183.144531 75.214844 L 241.492188 213.402344 L 115.050781 266.792969 Z M 56.703125 128.605469 "/></clipPath><clipPath id="8e26c6e03d"><path d="M 56.703125 128.605469 L 183.144531 75.214844 L 241.492188 213.402344 L 115.050781 266.792969 Z M 56.703125 128.605469 "/></clipPath><clipPath id="b579014a10"><path d="M 56.703125 128.605469 L 183.144531 75.214844 L 241.492188 213.402344 L 115.050781 266.792969 Z M 56.703125 128.605469 "/></clipPath><clipPath id="985fbf30fe"><path d="M 177 149 L 200 149 L 200 168 L 177 168 Z M 177 149 "/></clipPath><clipPath id="0c9e1e59ff"><path d="M 56.703125 128.605469 L 183.144531 75.214844 L 241.492188 213.402344 L 115.050781 266.792969 Z M 56.703125 128.605469 "/></clipPath><clipPath id="59e63f749f"><path d="M 56.703125 128.605469 L 183.144531 75.214844 L 241.492188 213.402344 L 115.050781 266.792969 Z M 56.703125 128.605469 "/></clipPath><clipPath id="10e2796b72"><path d="M 56.703125 128.605469 L 183.144531 75.214844 L 241.492188 213.402344 L 115.050781 266.792969 Z M 56.703125 128.605469 "/></clipPath><clipPath id="56cb663b08"><path d="M 154 148 L 172 148 L 172 166 L 154 166 Z M 154 148 "/></clipPath><clipPath id="fe12284472"><path d="M 56.703125 128.605469 L 183.144531 75.214844 L 241.492188 213.402344 L 115.050781 266.792969 Z M 56.703125 128.605469 "/></clipPath><clipPath id="e74f6d9798"><path d="M 56.703125 128.605469 L 183.144531 75.214844 L 241.492188 213.402344 L 115.050781 266.792969 Z M 56.703125 128.605469 "/></clipPath><clipPath id="ac2a60f1b0"><path d="M 56.703125 128.605469 L 183.144531 75.214844 L 241.492188 213.402344 L 115.050781 266.792969 Z M 56.703125 128.605469 "/></clipPath><clipPath id="f448732380"><path d="M 155 151 L 172 151 L 172 166 L 155 166 Z M 155 151 "/></clipPath><clipPath id="dde3740e9a"><path d="M 56.703125 128.605469 L 183.144531 75.214844 L 241.492188 213.402344 L 115.050781 266.792969 Z M 56.703125 128.605469 "/></clipPath><clipPath id="1e1e608f36"><path d="M 56.703125 128.605469 L 183.144531 75.214844 L 241.492188 213.402344 L 115.050781 266.792969 Z M 56.703125 128.605469 "/></clipPath><clipPath id="bd5cfb5e83"><path d="M 56.703125 128.605469 L 183.144531 75.214844 L 241.492188 213.402344 L 115.050781 266.792969 Z M 56.703125 128.605469 "/></clipPath><clipPath id="bf4bba20d7"><path d="M 155 148 L 171 148 L 171 164 L 155 164 Z M 155 148 "/></clipPath><clipPath id="b23679ed5a"><path d="M 56.703125 128.605469 L 183.144531 75.214844 L 241.492188 213.402344 L 115.050781 266.792969 Z M 56.703125 128.605469 "/></clipPath><clipPath id="2deda3b829"><path d="M 56.703125 128.605469 L 183.144531 75.214844 L 241.492188 213.402344 L 115.050781 266.792969 Z M 56.703125 128.605469 "/></clipPath><clipPath id="a000f3eaa7"><path d="M 56.703125 128.605469 L 183.144531 75.214844 L 241.492188 213.402344 L 115.050781 266.792969 Z M 56.703125 128.605469 "/></clipPath><clipPath id="fc3de66760"><path d="M 153 146 L 172 146 L 172 166 L 153 166 Z M 153 146 "/></clipPath><clipPath id="1176605c76"><path d="M 56.703125 128.605469 L 183.144531 75.214844 L 241.492188 213.402344 L 115.050781 266.792969 Z M 56.703125 128.605469 "/></clipPath><clipPath id="e9b902ff39"><path d="M 56.703125 128.605469 L 183.144531 75.214844 L 241.492188 213.402344 L 115.050781 266.792969 Z M 56.703125 128.605469 "/></clipPath><clipPath id="f8f601b7f7"><path d="M 56.703125 128.605469 L 183.144531 75.214844 L 241.492188 213.402344 L 115.050781 266.792969 Z M 56.703125 128.605469 "/></clipPath><clipPath id="c68103fd21"><path d="M 153 148 L 176 148 L 176 166 L 153 166 Z M 153 148 "/></clipPath><clipPath id="1328473efa"><path d="M 56.703125 128.605469 L 183.144531 75.214844 L 241.492188 213.402344 L 115.050781 266.792969 Z M 56.703125 128.605469 "/></clipPath><clipPath id="bb9cac41a6"><path d="M 56.703125 128.605469 L 183.144531 75.214844 L 241.492188 213.402344 L 115.050781 266.792969 Z M 56.703125 128.605469 "/></clipPath><clipPath id="a3158f704f"><path d="M 56.703125 128.605469 L 183.144531 75.214844 L 241.492188 213.402344 L 115.050781 266.792969 Z M 56.703125 128.605469 "/></clipPath><clipPath id="90ddcf2a6f"><path d="M 158 170 L 183 170 L 183 201 L 158 201 Z M 158 170 "/></clipPath><clipPath id="3d0a2822fb"><path d="M 56.703125 128.605469 L 183.144531 75.214844 L 241.492188 213.402344 L 115.050781 266.792969 Z M 56.703125 128.605469 "/></clipPath><clipPath id="d15e882370"><path d="M 56.703125 128.605469 L 183.144531 75.214844 L 241.492188 213.402344 L 115.050781 266.792969 Z M 56.703125 128.605469 "/></clipPath><clipPath id="5c2e3d12cb"><path d="M 56.703125 128.605469 L 183.144531 75.214844 L 241.492188 213.402344 L 115.050781 266.792969 Z M 56.703125 128.605469 "/></clipPath><clipPath id="89ca30dd87"><path d="M 150 197 L 162 197 L 162 204 L 150 204 Z M 150 197 "/></clipPath><clipPath id="2fca2a2511"><path d="M 56.703125 128.605469 L 183.144531 75.214844 L 241.492188 213.402344 L 115.050781 266.792969 Z M 56.703125 128.605469 "/></clipPath><clipPath id="f3d81ab4e0"><path d="M 56.703125 128.605469 L 183.144531 75.214844 L 241.492188 213.402344 L 115.050781 266.792969 Z M 56.703125 128.605469 "/></clipPath><clipPath id="499dc81afc"><path d="M 56.703125 128.605469 L 183.144531 75.214844 L 241.492188 213.402344 L 115.050781 266.792969 Z M 56.703125 128.605469 "/></clipPath><clipPath id="0992d72693"><path d="M 178 196 L 186 196 L 186 204 L 178 204 Z M 178 196 "/></clipPath><clipPath id="ba9052a2c3"><path d="M 56.703125 128.605469 L 183.144531 75.214844 L 241.492188 213.402344 L 115.050781 266.792969 Z M 56.703125 128.605469 "/></clipPath><clipPath id="f3a94618af"><path d="M 56.703125 128.605469 L 183.144531 75.214844 L 241.492188 213.402344 L 115.050781 266.792969 Z M 56.703125 128.605469 "/></clipPath><clipPath id="11f640c8d3"><path d="M 56.703125 128.605469 L 183.144531 75.214844 L 241.492188 213.402344 L 115.050781 266.792969 Z M 56.703125 128.605469 "/></clipPath><clipPath id="6a38670815"><path d="M 159 192 L 182 192 L 182 199 L 159 199 Z M 159 192 "/></clipPath><clipPath id="08c9b75060"><path d="M 56.703125 128.605469 L 183.144531 75.214844 L 241.492188 213.402344 L 115.050781 266.792969 Z M 56.703125 128.605469 "/></clipPath><clipPath id="afdeba2eee"><path d="M 56.703125 128.605469 L 183.144531 75.214844 L 241.492188 213.402344 L 115.050781 266.792969 Z M 56.703125 128.605469 "/></clipPath><clipPath id="302038400d"><path d="M 56.703125 128.605469 L 183.144531 75.214844 L 241.492188 213.402344 L 115.050781 266.792969 Z M 56.703125 128.605469 "/></clipPath><clipPath id="1853fda722"><path d="M 162 171 L 179 171 L 179 180 L 162 180 Z M 162 171 "/></clipPath><clipPath id="9c021e82ff"><path d="M 56.703125 128.605469 L 183.144531 75.214844 L 241.492188 213.402344 L 115.050781 266.792969 Z M 56.703125 128.605469 "/></clipPath><clipPath id="710a0c4b4a"><path d="M 56.703125 128.605469 L 183.144531 75.214844 L 241.492188 213.402344 L 115.050781 266.792969 Z M 56.703125 128.605469 "/></clipPath><clipPath id="4ca12e9862"><path d="M 56.703125 128.605469 L 183.144531 75.214844 L 241.492188 213.402344 L 115.050781 266.792969 Z M 56.703125 128.605469 "/></clipPath><clipPath id="603c7ad28d"><path d="M 163 171 L 179 171 L 179 180 L 163 180 Z M 163 171 "/></clipPath><clipPath id="383f279798"><path d="M 56.703125 128.605469 L 183.144531 75.214844 L 241.492188 213.402344 L 115.050781 266.792969 Z M 56.703125 128.605469 "/></clipPath><clipPath id="2bc6fe49da"><path d="M 56.703125 128.605469 L 183.144531 75.214844 L 241.492188 213.402344 L 115.050781 266.792969 Z M 56.703125 128.605469 "/></clipPath><clipPath id="10fd54c06f"><path d="M 56.703125 128.605469 L 183.144531 75.214844 L 241.492188 213.402344 L 115.050781 266.792969 Z M 56.703125 128.605469 "/></clipPath><clipPath id="705b6945af"><path d="M 172 194 L 182 194 L 182 199 L 172 199 Z M 172 194 "/></clipPath><clipPath id="54089fa670"><path d="M 56.703125 128.605469 L 183.144531 75.214844 L 241.492188 213.402344 L 115.050781 266.792969 Z M 56.703125 128.605469 "/></clipPath><clipPath id="a4fbafd080"><path d="M 56.703125 128.605469 L 183.144531 75.214844 L 241.492188 213.402344 L 115.050781 266.792969 Z M 56.703125 128.605469 "/></clipPath><clipPath id="746b6bb4b3"><path d="M 56.703125 128.605469 L 183.144531 75.214844 L 241.492188 213.402344 L 115.050781 266.792969 Z M 56.703125 128.605469 "/></clipPath><clipPath id="54fe47e8cd"><path d="M 142 149 L 212 149 L 212 170 L 142 170 Z M 142 149 "/></clipPath><clipPath id="964ec6dfa1"><path d="M 142.878906 149.148438 L 211.710938 153.972656 L 210.609375 169.683594 L 141.777344 164.863281 Z M 142.878906 149.148438 "/></clipPath><clipPath id="8bdb182c5a"><path d="M 142.878906 149.148438 L 211.710938 153.972656 L 210.609375 169.683594 L 141.777344 164.863281 Z M 142.878906 149.148438 "/></clipPath><clipPath id="c32a276722"><path d="M 142.878906 149.148438 L 211.710938 153.972656 L 210.609375 169.683594 L 141.777344 164.863281 Z M 142.878906 149.148438 "/></clipPath><clipPath id="10718ff7e1"><path d="M 142.878906 149.15625 L 211.710938 153.980469 L 210.609375 169.675781 L 141.777344 164.855469 Z M 142.878906 149.15625 "/></clipPath><clipPath id="2b0e0138c2"><path d="M 151 156 L 155 156 L 155 160 L 151 160 Z M 151 156 "/></clipPath><clipPath id="65b725d955"><path d="M 142.878906 149.148438 L 211.710938 153.972656 L 210.609375 169.683594 L 141.777344 164.863281 Z M 142.878906 149.148438 "/></clipPath><clipPath id="1e32ae6a69"><path d="M 142.878906 149.148438 L 211.710938 153.972656 L 210.609375 169.683594 L 141.777344 164.863281 Z M 142.878906 149.148438 "/></clipPath><clipPath id="b53424f2f6"><path d="M 142.878906 149.148438 L 211.710938 153.972656 L 210.609375 169.683594 L 141.777344 164.863281 Z M 142.878906 149.148438 "/></clipPath><clipPath id="2974f76998"><path d="M 154 159 L 158 159 L 158 163 L 154 163 Z M 154 159 "/></clipPath><clipPath id="1256d557c1"><path d="M 142.878906 149.148438 L 211.710938 153.972656 L 210.609375 169.683594 L 141.777344 164.863281 Z M 142.878906 149.148438 "/></clipPath><clipPath id="8e90d027a1"><path d="M 142.878906 149.148438 L 211.710938 153.972656 L 210.609375 169.683594 L 141.777344 164.863281 Z M 142.878906 149.148438 "/></clipPath><clipPath id="9a153b636e"><path d="M 142.878906 149.148438 L 211.710938 153.972656 L 210.609375 169.683594 L 141.777344 164.863281 Z M 142.878906 149.148438 "/></clipPath><clipPath id="f11b05c459"><path d="M 148 152 L 153 152 L 153 157 L 148 157 Z M 148 152 "/></clipPath><clipPath id="54efad7067"><path d="M 142.878906 149.148438 L 211.710938 153.972656 L 210.609375 169.683594 L 141.777344 164.863281 Z M 142.878906 149.148438 "/></clipPath><clipPath id="3f1e746ec0"><path d="M 142.878906 149.148438 L 211.710938 153.972656 L 210.609375 169.683594 L 141.777344 164.863281 Z M 142.878906 149.148438 "/></clipPath><clipPath id="6fc0847038"><path d="M 142.878906 149.148438 L 211.710938 153.972656 L 210.609375 169.683594 L 141.777344 164.863281 Z M 142.878906 149.148438 "/></clipPath><clipPath id="b231a2ba9a"><path d="M 157 156 L 162 156 L 162 160 L 157 160 Z M 157 156 "/></clipPath><clipPath id="c1b9bbf202"><path d="M 142.878906 149.148438 L 211.710938 153.972656 L 210.609375 169.683594 L 141.777344 164.863281 Z M 142.878906 149.148438 "/></clipPath><clipPath id="ed6fe2a3c9"><path d="M 142.878906 149.148438 L 211.710938 153.972656 L 210.609375 169.683594 L 141.777344 164.863281 Z M 142.878906 149.148438 "/></clipPath><clipPath id="8b9f0807da"><path d="M 142.878906 149.148438 L 211.710938 153.972656 L 210.609375 169.683594 L 141.777344 164.863281 Z M 142.878906 149.148438 "/></clipPath><clipPath id="60374e98a5"><path d="M 160 159 L 165 159 L 165 164 L 160 164 Z M 160 159 "/></clipPath><clipPath id="d56e356666"><path d="M 142.878906 149.148438 L 211.710938 153.972656 L 210.609375 169.683594 L 141.777344 164.863281 Z M 142.878906 149.148438 "/></clipPath><clipPath id="3c408ee7ee"><path d="M 142.878906 149.148438 L 211.710938 153.972656 L 210.609375 169.683594 L 141.777344 164.863281 Z M 142.878906 149.148438 "/></clipPath><clipPath id="cd3d2fc17e"><path d="M 142.878906 149.148438 L 211.710938 153.972656 L 210.609375 169.683594 L 141.777344 164.863281 Z M 142.878906 149.148438 "/></clipPath><clipPath id="690f60be76"><path d="M 154 153 L 159 153 L 159 157 L 154 157 Z M 154 153 "/></clipPath><clipPath id="4bfbe0e11f"><path d="M 142.878906 149.148438 L 211.710938 153.972656 L 210.609375 169.683594 L 141.777344 164.863281 Z M 142.878906 149.148438 "/></clipPath><clipPath id="9770c511e6"><path d="M 142.878906 149.148438 L 211.710938 153.972656 L 210.609375 169.683594 L 141.777344 164.863281 Z M 142.878906 149.148438 "/></clipPath><clipPath id="1b82761c5b"><path d="M 142.878906 149.148438 L 211.710938 153.972656 L 210.609375 169.683594 L 141.777344 164.863281 Z M 142.878906 149.148438 "/></clipPath><clipPath id="03ca254b37"><path d="M 186 158 L 190 158 L 190 162 L 186 162 Z M 186 158 "/></clipPath><clipPath id="18994d8e35"><path d="M 142.878906 149.148438 L 211.710938 153.972656 L 210.609375 169.683594 L 141.777344 164.863281 Z M 142.878906 149.148438 "/></clipPath><clipPath id="c5190c0a8b"><path d="M 142.878906 149.148438 L 211.710938 153.972656 L 210.609375 169.683594 L 141.777344 164.863281 Z M 142.878906 149.148438 "/></clipPath><clipPath id="6a81fa5bce"><path d="M 142.878906 149.148438 L 211.710938 153.972656 L 210.609375 169.683594 L 141.777344 164.863281 Z M 142.878906 149.148438 "/></clipPath><clipPath id="527bb759a0"><path d="M 188 161 L 193 161 L 193 166 L 188 166 Z M 188 161 "/></clipPath><clipPath id="0610fc4f12"><path d="M 142.878906 149.148438 L 211.710938 153.972656 L 210.609375 169.683594 L 141.777344 164.863281 Z M 142.878906 149.148438 "/></clipPath><clipPath id="145a99d5a6"><path d="M 142.878906 149.148438 L 211.710938 153.972656 L 210.609375 169.683594 L 141.777344 164.863281 Z M 142.878906 149.148438 "/></clipPath><clipPath id="6e9198a587"><path d="M 142.878906 149.148438 L 211.710938 153.972656 L 210.609375 169.683594 L 141.777344 164.863281 Z M 142.878906 149.148438 "/></clipPath><clipPath id="a5cbdf1c16"><path d="M 183 155 L 187 155 L 187 159 L 183 159 Z M 183 155 "/></clipPath><clipPath id="409d7c5065"><path d="M 142.878906 149.148438 L 211.710938 153.972656 L 210.609375 169.683594 L 141.777344 164.863281 Z M 142.878906 149.148438 "/></clipPath><clipPath id="d42e60aeae"><path d="M 142.878906 149.148438 L 211.710938 153.972656 L 210.609375 169.683594 L 141.777344 164.863281 Z M 142.878906 149.148438 "/></clipPath><clipPath id="0664c42a7b"><path d="M 142.878906 149.148438 L 211.710938 153.972656 L 210.609375 169.683594 L 141.777344 164.863281 Z M 142.878906 149.148438 "/></clipPath><clipPath id="2614d66e3c"><path d="M 192 158 L 196 158 L 196 163 L 192 163 Z M 192 158 "/></clipPath><clipPath id="4e053e1cb0"><path d="M 142.878906 149.148438 L 211.710938 153.972656 L 210.609375 169.683594 L 141.777344 164.863281 Z M 142.878906 149.148438 "/></clipPath><clipPath id="e70e8589de"><path d="M 142.878906 149.148438 L 211.710938 153.972656 L 210.609375 169.683594 L 141.777344 164.863281 Z M 142.878906 149.148438 "/></clipPath><clipPath id="c4e6424a9d"><path d="M 142.878906 149.148438 L 211.710938 153.972656 L 210.609375 169.683594 L 141.777344 164.863281 Z M 142.878906 149.148438 "/></clipPath><clipPath id="bd443ad6ff"><path d="M 195 162 L 199 162 L 199 166 L 195 166 Z M 195 162 "/></clipPath><clipPath id="4f4376640e"><path d="M 142.878906 149.148438 L 211.710938 153.972656 L 210.609375 169.683594 L 141.777344 164.863281 Z M 142.878906 149.148438 "/></clipPath><clipPath id="e4c70984b3"><path d="M 142.878906 149.148438 L 211.710938 153.972656 L 210.609375 169.683594 L 141.777344 164.863281 Z M 142.878906 149.148438 "/></clipPath><clipPath id="eff6cec56d"><path d="M 142.878906 149.148438 L 211.710938 153.972656 L 210.609375 169.683594 L 141.777344 164.863281 Z M 142.878906 149.148438 "/></clipPath><clipPath id="5a168264ea"><path d="M 189 155 L 193 155 L 193 159 L 189 159 Z M 189 155 "/></clipPath><clipPath id="70f271183b"><path d="M 142.878906 149.148438 L 211.710938 153.972656 L 210.609375 169.683594 L 141.777344 164.863281 Z M 142.878906 149.148438 "/></clipPath><clipPath id="a079ad5ced"><path d="M 142.878906 149.148438 L 211.710938 153.972656 L 210.609375 169.683594 L 141.777344 164.863281 Z M 142.878906 149.148438 "/></clipPath><clipPath id="1428a91054"><path d="M 142.878906 149.148438 L 211.710938 153.972656 L 210.609375 169.683594 L 141.777344 164.863281 Z M 142.878906 149.148438 "/></clipPath><clipPath id="546c1c16c1"><path d="M 149 136 L 175 136 L 175 148 L 149 148 Z M 149 136 "/></clipPath><clipPath id="59acc9bcfc"><path d="M 149.914062 136.78125 L 209.035156 140.652344 L 208.398438 150.382812 L 149.277344 146.507812 Z M 149.914062 136.78125 "/></clipPath><clipPath id="81932a6cec"><path d="M 149.914062 136.78125 L 209.035156 140.652344 L 208.398438 150.382812 L 149.277344 146.507812 Z M 149.914062 136.78125 "/></clipPath><clipPath id="839801b187"><path d="M 149.914062 136.78125 L 209.035156 140.652344 L 208.398438 150.382812 L 149.277344 146.507812 Z M 149.914062 136.78125 "/></clipPath><clipPath id="a7c4130ee5"><path d="M 183 140 L 209 140 L 209 149 L 183 149 Z M 183 140 "/></clipPath><clipPath id="a6e94e4afd"><path d="M 149.914062 136.78125 L 209.035156 140.652344 L 208.398438 150.382812 L 149.277344 146.507812 Z M 149.914062 136.78125 "/></clipPath><clipPath id="bdd1e20ed4"><path d="M 149.914062 136.78125 L 209.035156 140.652344 L 208.398438 150.382812 L 149.277344 146.507812 Z M 149.914062 136.78125 "/></clipPath><clipPath id="3a7ee3ebff"><path d="M 149.914062 136.78125 L 209.035156 140.652344 L 208.398438 150.382812 L 149.277344 146.507812 Z M 149.914062 136.78125 "/></clipPath><clipPath id="65408ee351"><path d="M 173 104 L 209 104 L 209 140 L 173 140 Z M 173 104 "/></clipPath><clipPath id="02b9c93ebb"><path d="M 168.433594 112.714844 L 200.21875 99.296875 L 213.636719 131.078125 L 181.855469 144.5 Z M 168.433594 112.714844 "/></clipPath><clipPath id="4915f07225"><path d="M 168.433594 112.714844 L 200.21875 99.296875 L 213.636719 131.078125 L 181.855469 144.5 Z M 168.433594 112.714844 "/></clipPath><clipPath id="f627712bb6"><path d="M 168.433594 112.714844 L 200.21875 99.296875 L 213.636719 131.078125 L 181.855469 144.5 Z M 168.433594 112.714844 "/></clipPath></defs><g id="90c712a542"><g clip-rule="nonzero" clip-path="url(#08f8798e16)"><g clip-rule="nonzero" clip-path="url(#86ba41416d)"><g clip-rule="nonzero" clip-path="url(#1a46bdfbfd)"><g clip-rule="nonzero" clip-path="url(#95184a4713)"><path style=" stroke:none;fill-rule:nonzero;fill:#b3b3b3;fill-opacity:1;" d="M 165.109375 237.832031 C 138.90625 248.894531 112.257812 239.390625 109.136719 237.59375 C 108.605469 237.285156 108.042969 236.902344 107.554688 236.484375 L 107.46875 236.386719 L 107.363281 236.34375 C 106.65625 235.621094 105.382812 234.289062 104.722656 233.148438 C 104.171875 232.269531 103.949219 231.429688 103.949219 230.582031 L 103.902344 230.46875 L 103.984375 229.816406 L 104.050781 229.339844 C 104.105469 229.050781 104.160156 228.761719 104.199219 228.433594 C 104.351562 226.679688 105.339844 225.328125 106.890625 224.675781 C 107.496094 224.417969 108.074219 224.308594 108.515625 224.300781 C 108.554688 224.285156 108.554688 224.285156 108.554688 224.285156 C 108.628906 224.253906 108.703125 224.21875 108.78125 224.1875 L 109.042969 224.078125 L 109.121094 224.042969 C 109.480469 223.847656 110.234375 223.308594 110.761719 222.863281 C 110.878906 222.722656 111.140625 222.390625 111.40625 221.96875 L 111.8125 221.351562 L 111.835938 221.296875 C 112.164062 220.804688 112.597656 220.355469 113.105469 219.871094 C 114.558594 218.460938 116.117188 217.402344 117.855469 216.667969 C 118.421875 216.425781 119.007812 216.226562 119.644531 216.046875 C 120.917969 215.683594 123.363281 214.832031 125.78125 213.808594 C 126.214844 213.671875 126.628906 213.496094 127.046875 213.320312 C 128.066406 212.886719 129.035156 212.4375 129.925781 212.015625 L 130 211.984375 C 131.324219 211.425781 132.601562 210.753906 133.882812 209.988281 C 134.09375 209.855469 134.265625 209.738281 134.4375 209.621094 C 135.222656 209.15625 136.011719 208.601562 136.75 208.023438 C 146.199219 200.964844 154.085938 188.300781 157.839844 174.089844 L 157.933594 173.785156 C 158.03125 173.167969 158.109375 172.511719 158.226562 171.839844 C 159.324219 163.152344 160.09375 155.050781 160.546875 147.789062 C 160.777344 136.625 160.25 125.777344 159.984375 119.980469 L 159.996094 119.796875 C 159.9375 118.175781 159.871094 116.960938 159.859375 116.300781 C 159.84375 114.792969 160.054688 113.28125 160.539062 111.789062 C 160.523438 111.75 160.542969 111.699219 160.566406 111.644531 C 158.984375 105.15625 157.234375 100.382812 156.488281 99.140625 C 155.097656 98.484375 154.183594 97.269531 153.929688 95.820312 C 153.570312 93.394531 155.246094 91.132812 156.929688 89.84375 C 157.433594 89.453125 158.082031 89.089844 158.914062 88.738281 C 159.707031 88.402344 166.863281 85.515625 169.503906 88.179688 C 170.464844 89.195312 170.738281 90.679688 170.136719 92 C 169.734375 92.835938 169.480469 94.144531 170.726562 97.085938 C 171.105469 97.992188 171.382812 98.851562 171.628906 99.546875 C 172.292969 101.535156 172.515625 102.0625 173.546875 102.605469 C 173.722656 102.710938 174.390625 102.917969 174.910156 103.097656 C 181.363281 105.394531 198.449219 111.472656 204.914062 136.480469 C 212.199219 164.605469 210.847656 187.046875 200.8125 205.0625 C 200.414062 205.808594 199.941406 206.585938 199.507812 207.347656 C 198.261719 209.253906 197.058594 211.046875 195.871094 212.664062 C 187.351562 224.347656 176.980469 232.816406 165.144531 237.816406 Z M 165.109375 237.832031 "/></g></g></g></g><g clip-rule="nonzero" clip-path="url(#af9d71366c)"><g clip-rule="nonzero" clip-path="url(#6f4c9d0b3d)"><g clip-rule="nonzero" clip-path="url(#844672d487)"><g clip-rule="nonzero" clip-path="url(#166c73f98a)"><path style=" stroke:none;fill-rule:nonzero;fill:#ffffff;fill-opacity:1;" d="M 198 204.207031 C 207.984375 186.167969 209.332031 163.726562 202.101562 135.621094 C 195.640625 110.613281 178.550781 104.539062 172.0625 102.257812 C 171.539062 102.074219 170.910156 101.851562 170.734375 101.75 C 169.703125 101.207031 169.480469 100.679688 168.800781 98.652344 C 168.570312 97.996094 168.257812 97.152344 167.859375 96.207031 C 166.632812 93.300781 166.921875 91.980469 167.285156 91.160156 C 167.871094 89.800781 167.652344 88.335938 166.652344 87.335938 C 164.035156 84.621094 156.894531 87.546875 156.101562 87.882812 C 155.230469 88.25 154.582031 88.613281 154.117188 88.984375 C 152.394531 90.289062 150.707031 92.515625 151.101562 94.925781 C 151.332031 96.429688 152.285156 97.625 153.675781 98.285156 C 154.421875 99.523438 156.117188 104.277344 157.753906 110.785156 C 157.730469 110.839844 157.710938 110.894531 157.6875 110.949219 C 157.242188 112.425781 156.996094 113.953125 157.007812 115.457031 C 157.019531 116.121094 157.070312 117.296875 157.148438 118.953125 L 157.15625 119.082031 C 157.4375 124.921875 157.910156 135.746094 157.695312 146.949219 C 157.28125 154.191406 156.496094 162.257812 155.375 170.996094 C 155.296875 171.652344 155.179688 172.324219 155.085938 172.945312 L 155.027344 173.234375 C 151.257812 187.40625 143.347656 200.125 133.9375 207.164062 C 133.164062 207.757812 132.394531 208.261719 131.589844 208.777344 C 131.414062 208.894531 131.242188 209.015625 131.015625 209.109375 C 129.789062 209.894531 128.472656 210.582031 127.152344 211.140625 L 127.113281 211.15625 C 126.222656 211.578125 125.238281 211.992188 124.21875 212.425781 C 123.800781 212.601562 123.386719 212.777344 122.96875 212.953125 C 120.535156 213.9375 118.105469 214.828125 116.792969 215.203125 C 116.195312 215.367188 115.609375 215.570312 115.042969 215.808594 C 113.265625 216.558594 111.691406 217.582031 110.253906 219.03125 C 109.730469 219.476562 109.351562 219.945312 108.984375 220.457031 L 108.964844 220.511719 L 108.59375 221.109375 C 108.289062 221.550781 108.050781 221.828125 107.929688 221.96875 C 107.367188 222.429688 106.632812 223.007812 106.308594 223.1875 L 106.214844 223.183594 L 105.96875 223.332031 C 105.890625 223.363281 105.816406 223.394531 105.742188 223.425781 C 105.703125 223.441406 105.703125 223.441406 105.703125 223.441406 C 105.222656 223.46875 104.644531 223.578125 104.042969 223.832031 C 102.527344 224.472656 101.539062 225.824219 101.335938 227.554688 C 101.296875 227.882812 101.238281 228.171875 101.222656 228.445312 L 101.132812 228.972656 L 101.054688 229.628906 L 101.085938 229.703125 C 101.085938 230.550781 101.359375 231.410156 101.871094 232.304688 C 102.515625 233.410156 103.84375 234.761719 104.550781 235.488281 L 104.621094 235.546875 L 104.707031 235.644531 C 105.230469 236.042969 105.742188 236.40625 106.273438 236.714844 C 109.40625 238.546875 136.09375 248.039062 162.296875 236.972656 C 174.167969 231.960938 184.5 223.507812 193.058594 211.804688 C 194.230469 210.152344 195.449219 208.394531 196.65625 206.507812 C 197.128906 205.730469 197.566406 204.96875 198 204.207031 Z M 198 204.207031 "/></g></g></g></g><g clip-rule="nonzero" clip-path="url(#e2b2a8dd1a)"><g clip-rule="nonzero" clip-path="url(#97b0d7e373)"><g clip-rule="nonzero" clip-path="url(#3fa841343d)"><g clip-rule="nonzero" clip-path="url(#ee1149cc9a)"><path style=" stroke:none;fill-rule:nonzero;fill:#b3b3b3;fill-opacity:1;" d="M 172.460938 101.199219 C 172.085938 101.046875 171.363281 100.816406 171.242188 100.734375 C 170.671875 100.441406 170.570312 100.308594 169.855469 98.296875 C 169.644531 97.585938 169.332031 96.742188 168.917969 95.761719 C 167.722656 92.929688 168.152344 91.949219 168.324219 91.609375 C 169.136719 89.84375 168.804688 87.894531 167.476562 86.546875 C 164.394531 83.359375 157.054688 86.234375 155.65625 86.824219 C 154.710938 87.222656 153.949219 87.636719 153.421875 88.078125 C 151.46875 89.570312 149.550781 92.203125 149.984375 95.132812 C 150.257812 96.835938 151.269531 98.277344 152.832031 99.128906 C 153.566406 100.554688 155.070312 104.851562 156.539062 110.765625 C 156.089844 112.332031 155.859375 113.898438 155.867188 115.496094 C 155.878906 116.15625 155.953125 117.28125 156.011719 118.902344 L 156.019531 119.03125 L 156.03125 119.160156 C 156.296875 124.957031 156.769531 135.785156 156.558594 146.894531 C 156.128906 154.101562 155.34375 162.164062 154.246094 170.851562 C 154.128906 171.523438 154.066406 172.21875 153.960938 172.707031 L 153.886719 172.960938 C 150.203125 186.917969 142.480469 199.335938 133.242188 206.257812 C 132.488281 206.796875 131.738281 207.339844 131.007812 207.824219 C 130.816406 207.902344 130.644531 208.023438 130.433594 208.15625 C 129.226562 208.886719 127.992188 209.542969 126.703125 210.085938 L 126.628906 210.117188 C 125.738281 210.539062 124.769531 210.992188 123.789062 211.40625 C 123.371094 211.582031 122.957031 211.757812 122.523438 211.894531 C 120.125 212.863281 117.734375 213.738281 116.496094 214.085938 C 115.824219 214.28125 115.203125 214.496094 114.597656 214.753906 C 112.707031 215.550781 110.996094 216.671875 109.464844 218.210938 C 108.917969 218.707031 108.421875 219.226562 108.035156 219.789062 L 108.015625 219.84375 L 107.992188 219.898438 L 107.621094 220.5 C 107.398438 220.816406 107.238281 221.0625 107.117188 221.199219 C 106.671875 221.523438 106.132812 221.929688 105.863281 222.132812 L 105.824219 222.148438 L 105.710938 222.195312 L 105.445312 222.308594 C 105.445312 222.308594 105.445312 222.308594 105.40625 222.324219 C 104.800781 222.359375 104.164062 222.539062 103.59375 222.777344 C 101.667969 223.589844 100.417969 225.273438 100.21875 227.445312 C 100.164062 227.738281 100.132812 227.972656 100.113281 228.246094 L 100.089844 228.300781 L 100.023438 228.773438 L 100.039062 228.8125 L 100 228.828125 L 99.921875 229.484375 L 99.921875 229.796875 L 99.984375 229.945312 C 99.996094 230.921875 100.316406 231.894531 100.898438 232.851562 C 101.574219 234.03125 102.8125 235.375 103.726562 236.277344 L 103.8125 236.375 L 103.867188 236.398438 L 103.882812 236.433594 L 104.003906 236.515625 C 104.546875 236.953125 105.125 237.378906 105.710938 237.707031 C 108.898438 239.5625 136.085938 249.285156 162.742188 238.03125 C 174.804688 232.9375 185.292969 224.328125 193.96875 212.488281 C 195.179688 210.820312 196.382812 209.023438 197.628906 207.117188 C 198.101562 206.339844 198.558594 205.527344 198.996094 204.765625 C 209.140625 186.480469 210.507812 163.765625 203.183594 135.34375 C 196.558594 109.734375 179.058594 103.523438 172.460938 101.199219 Z M 162.296875 236.972656 C 136.09375 248.039062 109.40625 238.546875 106.273438 236.714844 C 105.742188 236.40625 105.230469 236.042969 104.707031 235.644531 L 104.621094 235.546875 L 104.550781 235.488281 C 103.84375 234.761719 102.515625 233.410156 101.871094 232.304688 C 101.359375 231.410156 101.085938 230.550781 101.085938 229.703125 L 101.054688 229.628906 L 101.132812 228.972656 L 101.222656 228.445312 C 101.238281 228.171875 101.296875 227.882812 101.335938 227.554688 C 101.539062 225.824219 102.527344 224.472656 104.042969 223.832031 C 104.644531 223.578125 105.222656 223.46875 105.703125 223.441406 C 105.703125 223.441406 105.703125 223.441406 105.742188 223.425781 C 105.816406 223.394531 105.890625 223.363281 105.96875 223.332031 L 106.214844 223.183594 L 106.308594 223.1875 C 106.632812 223.007812 107.367188 222.429688 107.929688 221.96875 C 108.050781 221.828125 108.289062 221.550781 108.59375 221.109375 L 108.964844 220.511719 L 108.984375 220.457031 C 109.351562 219.945312 109.730469 219.476562 110.253906 219.03125 C 111.691406 217.582031 113.265625 216.558594 115.042969 215.808594 C 115.609375 215.570312 116.195312 215.367188 116.792969 215.203125 C 118.105469 214.828125 120.535156 213.9375 122.96875 212.953125 C 123.386719 212.777344 123.800781 212.601562 124.21875 212.425781 C 125.238281 211.992188 126.222656 211.578125 127.113281 211.15625 L 127.152344 211.140625 C 128.472656 210.582031 129.789062 209.894531 131.015625 209.109375 C 131.242188 209.015625 131.414062 208.894531 131.589844 208.777344 C 132.394531 208.261719 133.164062 207.757812 133.9375 207.164062 C 143.347656 200.125 151.257812 187.40625 155.027344 173.234375 L 155.085938 172.945312 C 155.179688 172.324219 155.296875 171.652344 155.375 170.996094 C 156.496094 162.257812 157.28125 154.191406 157.695312 146.949219 C 157.910156 135.746094 157.4375 124.921875 157.15625 119.082031 L 157.148438 118.953125 C 157.070312 117.296875 157.019531 116.121094 157.007812 115.457031 C 156.996094 113.953125 157.242188 112.425781 157.6875 110.949219 C 157.710938 110.894531 157.730469 110.839844 157.753906 110.785156 C 156.117188 104.277344 154.421875 99.523438 153.675781 98.285156 C 152.285156 97.625 151.332031 96.429688 151.101562 94.925781 C 150.707031 92.515625 152.394531 90.289062 154.117188 88.984375 C 154.582031 88.613281 155.230469 88.25 156.101562 87.882812 C 156.894531 87.546875 164.035156 84.621094 166.652344 87.335938 C 167.652344 88.335938 167.871094 89.800781 167.285156 91.160156 C 166.921875 91.980469 166.632812 93.300781 167.859375 96.207031 C 168.257812 97.152344 168.570312 97.996094 168.800781 98.652344 C 169.480469 100.679688 169.703125 101.207031 170.734375 101.75 C 170.910156 101.851562 171.539062 102.074219 172.0625 102.257812 C 178.550781 104.539062 195.640625 110.613281 202.101562 135.621094 C 209.332031 163.726562 207.984375 186.167969 198 204.207031 C 197.566406 204.96875 197.128906 205.730469 196.65625 206.507812 C 195.449219 208.394531 194.230469 210.152344 193.058594 211.804688 C 184.5 223.507812 174.167969 231.960938 162.296875 236.972656 Z M 162.296875 236.972656 "/></g></g></g></g><g clip-rule="nonzero" clip-path="url(#9abf3f2217)"><g clip-rule="nonzero" clip-path="url(#30ad0339db)"><g clip-rule="nonzero" clip-path="url(#39b419fca3)"><g clip-rule="nonzero" clip-path="url(#5cd6c423d9)"><path style=" stroke:none;fill-rule:nonzero;fill:#462100;fill-opacity:1;" d="M 161.402344 234.859375 C 136.03125 245.574219 110.421875 236.519531 107.449219 234.75 C 106.988281 234.503906 106.585938 234.183594 106.144531 233.878906 C 105.59375 233.3125 104.390625 232.042969 103.824219 231.125 C 103.34375 230.304688 103.339844 229.773438 103.425781 229.339844 L 103.410156 229.300781 L 103.460938 228.789062 C 103.515625 228.5 103.570312 228.210938 103.617188 227.789062 C 103.695312 226.914062 104.160156 226.226562 104.917969 225.910156 C 105.410156 225.699219 105.851562 225.691406 106.085938 225.726562 C 106.277344 225.644531 106.425781 225.582031 106.617188 225.5 C 106.730469 225.453125 106.84375 225.40625 106.917969 225.375 L 106.996094 225.34375 C 106.996094 225.34375 107.070312 225.308594 107.070312 225.308594 C 107.714844 225.039062 108.992188 224.054688 109.496094 223.664062 C 109.6875 223.492188 110.195312 222.789062 110.625 222.121094 L 110.867188 221.75 C 111.113281 221.378906 111.414062 221.03125 111.839844 220.671875 C 113.058594 219.449219 114.40625 218.523438 115.917969 217.882812 C 116.375 217.691406 116.878906 217.523438 117.402344 217.390625 C 118.792969 216.984375 121.3125 216.097656 123.824219 215.082031 C 124.238281 214.90625 124.65625 214.730469 125.109375 214.539062 C 126.128906 214.105469 127.136719 213.636719 128.066406 213.199219 C 129.464844 212.609375 130.851562 211.890625 132.195312 211.058594 C 132.421875 210.960938 132.632812 210.828125 132.84375 210.695312 C 133.648438 210.175781 134.476562 209.605469 135.289062 208.996094 C 145.144531 201.632812 153.316406 188.492188 157.234375 173.8125 L 157.316406 173.378906 C 157.449219 172.746094 157.535156 171.996094 157.636719 171.289062 C 158.742188 162.507812 159.570312 154.335938 159.992188 147 C 160.191406 135.761719 159.6875 124.859375 159.441406 119.007812 L 159.417969 118.839844 C 159.355469 117.222656 159.304688 116.042969 159.308594 115.417969 C 159.285156 114.097656 159.496094 112.804688 159.894531 111.527344 C 159.96875 111.183594 160.042969 110.929688 160.070312 110.785156 C 158.476562 104.167969 156.074219 96.785156 154.960938 96.363281 C 153.792969 95.921875 153.4375 95.183594 153.367188 94.59375 C 153.109375 93.144531 154.347656 91.644531 155.492188 90.761719 C 155.835938 90.527344 156.296875 90.242188 156.976562 89.957031 C 158.601562 89.269531 163.800781 87.652344 165.042969 88.90625 C 165.199219 89.0625 165.519531 89.503906 165.195312 90.21875 C 164.359375 92.039062 164.550781 94.179688 165.777344 97.085938 C 166.128906 97.914062 166.371094 98.703125 166.621094 99.398438 C 167.3125 101.460938 167.78125 102.773438 169.664062 103.757812 C 169.964844 103.941406 170.578125 104.125 171.332031 104.429688 C 177.460938 106.597656 193.703125 112.363281 199.894531 136.199219 C 206.980469 163.742188 205.703125 185.617188 196.015625 203.089844 C 195.578125 203.851562 195.144531 204.613281 194.691406 205.335938 C 193.542969 207.15625 192.347656 208.859375 191.195312 210.457031 C 182.898438 221.828125 172.859375 230.023438 161.402344 234.859375 Z M 161.402344 234.859375 "/></g></g></g></g><g clip-rule="nonzero" clip-path="url(#969d97312d)"><g clip-rule="nonzero" clip-path="url(#80bafb8bd3)"><g clip-rule="nonzero" clip-path="url(#4c9a0856e6)"><g clip-rule="nonzero" clip-path="url(#099964a331)"><path style=" stroke:none;fill-rule:nonzero;fill:#e8b408;fill-opacity:1;" d="M 170.203125 106.195312 C 170.203125 106.195312 167.027344 105.003906 165.34375 100.070312 C 163.625 95.148438 162.90625 92.921875 163.335938 91.40625 C 163.804688 89.875 159.730469 95.105469 156.554688 94.757812 C 153.414062 94.394531 156.667969 94.710938 158.625 99.660156 C 160.621094 104.597656 161.699219 109.789062 161.699219 109.789062 C 161.699219 109.789062 162.945312 108.417969 164.175781 108.164062 C 164.175781 108.164062 161.253906 110.953125 161.296875 115.378906 C 161.339844 119.808594 163.882812 156.425781 159.148438 174.339844 C 155.417969 188.402344 147.371094 202.472656 136.492188 210.574219 C 135.640625 211.203125 134.792969 211.828125 133.910156 212.378906 C 133.699219 212.511719 133.488281 212.644531 133.238281 212.792969 C 131.859375 213.640625 130.394531 214.394531 128.921875 215.015625 C 127.476562 215.714844 126.003906 216.335938 124.550781 216.90625 C 121.773438 218.035156 119.253906 218.921875 117.941406 219.296875 C 114.347656 220.28125 112.355469 222.945312 111.222656 224.488281 C 110.117188 225.980469 107.199219 227.300781 106.570312 227.609375 C 105.980469 227.902344 106.5 228.394531 107.339844 229.640625 C 108.230469 230.910156 107.8125 231.710938 107.5 232.242188 C 107.136719 232.75 107.539062 233.070312 107.539062 233.070312 C 154.261719 250.234375 181.570312 220.789062 190.800781 208.046875 C 190.980469 207.835938 191.59375 206.867188 191.960938 206.355469 C 191.429688 206.582031 191.960938 206.355469 191.960938 206.355469 C 191.960938 206.355469 192.855469 205 194.183594 202.441406 C 198.757812 193.441406 208.101562 169.359375 197.707031 136.722656 C 197.707031 136.722656 193.253906 113.933594 170.203125 106.195312 Z M 170.203125 106.195312 "/></g></g></g></g><g clip-rule="nonzero" clip-path="url(#77208b7888)"><g clip-rule="nonzero" clip-path="url(#8ff271a953)"><g clip-rule="nonzero" clip-path="url(#b03835939f)"><g clip-rule="nonzero" clip-path="url(#3fdf130bcd)"><path style=" stroke:none;fill-rule:nonzero;fill:#fff035;fill-opacity:1;" d="M 170.253906 110.21875 C 169.21875 108.078125 167.789062 107.4375 166.75 107.300781 C 166.238281 107.25 165.851562 107.277344 165.609375 107.335938 C 165.496094 107.382812 165.34375 107.449219 165.246094 107.535156 L 163.339844 109.140625 C 163.117188 109.457031 162.894531 109.773438 162.664062 110.179688 C 162.644531 110.234375 162.605469 110.25 162.621094 110.285156 C 162.515625 110.464844 162.453125 110.625 162.347656 110.800781 C 162.328125 110.855469 162.304688 110.910156 162.246094 110.980469 C 162.179688 111.140625 162.113281 111.300781 162.027344 111.515625 C 162.003906 111.570312 161.984375 111.625 161.960938 111.675781 C 161.890625 111.929688 161.761719 112.160156 161.691406 112.414062 C 161.6875 112.503906 161.664062 112.558594 161.679688 112.59375 C 161.59375 112.808594 161.542969 113.007812 161.507812 113.246094 C 161.503906 113.335938 161.460938 113.445312 161.453125 113.535156 C 161.402344 113.734375 161.390625 113.917969 161.359375 114.152344 C 161.351562 114.246094 161.347656 114.335938 161.339844 114.429688 C 161.300781 114.757812 161.296875 115.066406 161.296875 115.378906 C 161.339844 119.808594 163.882812 156.425781 159.148438 174.339844 C 158.984375 174.898438 158.820312 175.457031 158.667969 176.050781 C 158.640625 176.199219 158.574219 176.359375 158.53125 176.464844 C 158.40625 177.007812 158.222656 177.53125 158.042969 178.050781 C 158.019531 178.105469 158.035156 178.140625 158.015625 178.195312 C 157.8125 178.769531 157.609375 179.34375 157.40625 179.917969 C 157.378906 180.066406 157.335938 180.171875 157.308594 180.316406 C 157.125 180.839844 156.929688 181.320312 156.746094 181.84375 C 156.6875 181.910156 156.683594 182.003906 156.660156 182.058594 C 156.417969 182.648438 156.214844 183.222656 155.960938 183.773438 C 155.917969 183.882812 155.910156 183.972656 155.867188 184.082031 C 155.632812 184.582031 155.414062 185.117188 155.179688 185.617188 C 155.171875 185.707031 155.152344 185.761719 155.089844 185.832031 C 154.851562 186.421875 154.59375 186.976562 154.316406 187.582031 C 154.292969 187.636719 154.269531 187.6875 154.25 187.742188 C 153.976562 188.257812 153.71875 188.808594 153.464844 189.363281 C 153.441406 189.417969 153.417969 189.46875 153.34375 189.503906 C 152.769531 190.679688 152.144531 191.832031 151.519531 192.984375 C 151.480469 193 151.457031 193.054688 151.421875 193.070312 C 150.792969 194.222656 150.113281 195.355469 149.363281 196.429688 C 149.378906 196.464844 149.339844 196.480469 149.355469 196.519531 C 148.621094 197.628906 147.871094 198.703125 147.105469 199.738281 C 147.070312 199.753906 147.070312 199.753906 147.070312 199.753906 C 146.28125 200.839844 145.460938 201.855469 144.625 202.828125 C 142.132812 205.792969 139.40625 208.410156 136.492188 210.574219 C 135.777344 211.101562 135.0625 211.625 134.355469 212.054688 C 134.292969 212.125 134.257812 212.140625 134.179688 212.175781 C 134.121094 212.242188 134.007812 212.292969 133.910156 212.378906 C 133.796875 212.425781 133.660156 212.527344 133.546875 212.574219 C 133.488281 212.644531 133.414062 212.675781 133.335938 212.707031 C 133.300781 212.722656 133.277344 212.777344 133.238281 212.792969 C 131.859375 213.640625 130.394531 214.394531 128.921875 215.015625 C 128.882812 215.03125 128.84375 215.050781 128.84375 215.050781 C 128.179688 215.375 127.5 215.660156 126.835938 215.988281 C 126.761719 216.019531 126.722656 216.035156 126.644531 216.066406 C 125.964844 216.355469 125.324219 216.625 124.625 216.875 C 124.625 216.875 124.589844 216.890625 124.550781 216.90625 C 124.511719 216.921875 124.476562 216.9375 124.4375 216.953125 C 124.171875 217.066406 123.90625 217.179688 123.644531 217.289062 C 123.566406 217.320312 123.492188 217.355469 123.417969 217.386719 C 123.152344 217.496094 122.832031 217.585938 122.605469 217.683594 C 122.570312 217.699219 122.53125 217.714844 122.492188 217.730469 C 122.226562 217.84375 121.964844 217.953125 121.683594 218.027344 C 121.644531 218.042969 121.570312 218.078125 121.53125 218.09375 C 121.265625 218.203125 121.023438 218.261719 120.761719 218.375 C 120.722656 218.390625 120.683594 218.40625 120.644531 218.421875 C 120.101562 218.609375 119.632812 218.761719 119.199219 218.898438 C 119.160156 218.914062 119.125 218.933594 119.085938 218.949219 C 118.898438 219.027344 118.691406 219.070312 118.539062 219.132812 C 118.503906 219.148438 118.464844 219.164062 118.410156 219.144531 C 118.261719 219.207031 118.054688 219.25 117.941406 219.296875 C 114.347656 220.28125 112.355469 222.945312 111.222656 224.488281 C 110.117188 225.980469 107.199219 227.300781 106.570312 227.609375 C 105.980469 227.902344 106.5 228.394531 107.339844 229.640625 C 107.441406 229.777344 107.503906 229.925781 107.605469 230.0625 C 107.621094 230.101562 107.636719 230.136719 107.65625 230.175781 C 107.6875 230.25 107.734375 230.363281 107.765625 230.441406 C 107.78125 230.476562 107.796875 230.515625 107.796875 230.515625 C 107.808594 230.644531 107.855469 230.757812 107.851562 230.847656 C 107.867188 230.886719 107.882812 230.925781 107.859375 230.976562 C 107.875 231.015625 107.871094 231.105469 107.886719 231.144531 C 107.863281 231.199219 107.878906 231.234375 107.859375 231.289062 C 107.875 231.328125 107.851562 231.382812 107.828125 231.433594 C 107.824219 231.527344 107.78125 231.632812 107.738281 231.742188 C 107.996094 231.410156 108.855469 230.378906 110.398438 230.660156 C 112.21875 230.960938 113.632812 230.71875 116.019531 229.308594 C 118.410156 227.898438 122.5 227.242188 125.769531 226.972656 C 128.25 226.722656 140.964844 224.867188 151.511719 215.96875 C 151.511719 215.96875 163.75 206.445312 171.445312 190.484375 C 187.914062 157.214844 172.074219 113.894531 170.253906 110.21875 Z M 170.253906 110.21875 "/></g></g></g></g><g clip-rule="nonzero" clip-path="url(#2e53ef80af)"><g clip-rule="nonzero" clip-path="url(#3e24b0635b)"><g clip-rule="nonzero" clip-path="url(#8db7f2edf9)"><g clip-rule="nonzero" clip-path="url(#d03eaab942)"><path style=" stroke:none;fill-rule:nonzero;fill:#d8840a;fill-opacity:1;" d="M 170.253906 110.21875 C 171.914062 113.519531 184.8125 148.699219 175.535156 179.910156 C 186.027344 148.941406 173.128906 113.539062 171.519531 110.261719 C 170.476562 108.214844 169.066406 107.609375 168.027344 107.472656 C 167.804688 107.476562 167.621094 107.464844 167.402344 107.46875 C 168.320312 107.746094 169.429688 108.476562 170.253906 110.21875 Z M 170.253906 110.21875 "/></g></g></g></g><g clip-rule="nonzero" clip-path="url(#cf17fbe8f4)"><g clip-rule="nonzero" clip-path="url(#aa33bc4a48)"><g clip-rule="nonzero" clip-path="url(#7be9b37576)"><g clip-rule="nonzero" clip-path="url(#a7104a3022)"><path style=" stroke:none;fill-rule:nonzero;fill:#d8840a;fill-opacity:1;" d="M 115.679688 228.609375 C 113.988281 229.769531 112.21875 230.648438 110.398438 230.660156 C 112.21875 230.960938 113.632812 230.71875 116.019531 229.308594 C 118.410156 227.898438 122.5 227.242188 125.769531 226.972656 C 128.25 226.722656 140.964844 224.867188 151.511719 215.96875 C 147.113281 218.847656 137.207031 224.71875 128.773438 225.746094 C 117.558594 227.148438 117.335938 227.464844 115.679688 228.609375 Z M 115.679688 228.609375 "/></g></g></g></g><g clip-rule="nonzero" clip-path="url(#deee4e928f)"><g clip-rule="nonzero" clip-path="url(#65ee8a9294)"><g clip-rule="nonzero" clip-path="url(#83241bfb41)"><g clip-rule="nonzero" clip-path="url(#a700bec1a5)"><path style=" stroke:none;fill-rule:nonzero;fill:#fdf9b2;fill-opacity:1;" d="M 144.082031 208.925781 C 167.589844 186.421875 166.101562 161.578125 164.890625 153.644531 C 164.828125 153.496094 164.511719 152.960938 164.242188 153.695312 C 163.984375 154.5625 165.800781 169.308594 157.710938 186.234375 C 157.609375 186.414062 157.558594 186.613281 157.457031 186.789062 C 151.109375 200.359375 141.808594 208.507812 141.085938 210.058594 C 140.019531 212.285156 144.082031 208.925781 144.082031 208.925781 Z M 144.082031 208.925781 "/></g></g></g></g><g clip-rule="nonzero" clip-path="url(#2aaaaa2eba)"><g clip-rule="nonzero" clip-path="url(#4114bbb5ab)"><g clip-rule="nonzero" clip-path="url(#22e5e0b7ee)"><g clip-rule="nonzero" clip-path="url(#813df9c030)"><path style=" stroke:none;fill-rule:nonzero;fill:#ffffff;fill-opacity:1;" d="M 179.398438 158.675781 C 179.582031 153.933594 183.589844 150.238281 188.378906 150.394531 C 193.144531 150.605469 196.859375 154.546875 196.71875 159.277344 C 196.535156 164.019531 192.511719 167.675781 187.722656 167.519531 C 182.972656 167.347656 179.203125 163.382812 179.398438 158.675781 Z M 179.398438 158.675781 "/></g></g></g></g><g clip-rule="nonzero" clip-path="url(#0ee77f3070)"><g clip-rule="nonzero" clip-path="url(#1f925c771b)"><g clip-rule="nonzero" clip-path="url(#31aed91c86)"><g clip-rule="nonzero" clip-path="url(#7b1ab50715)"><path style=" stroke:none;fill-rule:nonzero;fill:#cccccc;fill-opacity:1;" d="M 186.007812 166.199219 C 190.757812 166.371094 194.765625 162.675781 194.949219 157.933594 C 195.054688 155.445312 194.0625 153.195312 192.382812 151.546875 C 195.078125 153.078125 196.855469 156.015625 196.71875 159.277344 C 196.535156 164.019531 192.511719 167.675781 187.722656 167.519531 C 185.464844 167.449219 183.46875 166.515625 181.960938 165.0625 C 183.132812 165.722656 184.519531 166.160156 186.007812 166.199219 Z M 186.007812 166.199219 "/></g></g></g></g><g clip-rule="nonzero" clip-path="url(#0fc0082bf4)"><g clip-rule="nonzero" clip-path="url(#cb608c0387)"><g clip-rule="nonzero" clip-path="url(#5d436fa095)"><g clip-rule="nonzero" clip-path="url(#ceba7a0b12)"><path style=" stroke:none;fill-rule:nonzero;fill:#462100;fill-opacity:1;" d="M 192.808594 157.191406 C 192.808594 157.191406 194.222656 159.171875 193.449219 160.921875 C 192.695312 162.621094 190.042969 164.894531 185.722656 164.050781 C 181.441406 163.191406 178.359375 159.382812 180.214844 155.21875 C 182.101562 151.042969 190.792969 149.464844 193.855469 154.394531 C 193.855469 154.394531 192.480469 150.929688 188.339844 150.722656 C 184.179688 150.476562 179.890625 152.246094 178.871094 157.210938 C 177.808594 162.191406 183.253906 165.269531 187.382812 164.816406 C 191.53125 164.398438 193.476562 163.3125 194.148438 161.425781 C 194.878906 159.5625 194.484375 157.996094 192.808594 157.191406 Z M 192.808594 157.191406 "/></g></g></g></g><g clip-rule="nonzero" clip-path="url(#1da7f913f1)"><g clip-rule="nonzero" clip-path="url(#8736a23639)"><g clip-rule="nonzero" clip-path="url(#8e26c6e03d)"><g clip-rule="nonzero" clip-path="url(#b579014a10)"><path style=" stroke:none;fill-rule:nonzero;fill:#462100;fill-opacity:1;" d="M 195.960938 156.21875 C 195.960938 156.21875 194.609375 167.898438 185.542969 167.105469 C 176.53125 166.332031 177.945312 152.800781 183.964844 151.546875 C 190 150.332031 195.769531 151.542969 197.105469 158.089844 C 198.445312 164.636719 190.671875 167.117188 189.0625 167.53125 C 187.417969 167.957031 178.859375 168.683594 177.757812 162.703125 C 177.757812 162.703125 177.792969 168.378906 184.523438 168.378906 C 191.25 168.382812 196.273438 166.664062 197.652344 160.4375 C 199.046875 154.246094 192.222656 148.949219 187.078125 150.054688 C 181.90625 151.214844 178.03125 152.585938 178.15625 161.113281 C 178.28125 169.636719 189.980469 169.808594 194.015625 163.75 C 194.015625 163.75 197.605469 159.167969 195.960938 156.21875 Z M 195.960938 156.21875 "/></g></g></g></g><g clip-rule="nonzero" clip-path="url(#985fbf30fe)"><g clip-rule="nonzero" clip-path="url(#0c9e1e59ff)"><g clip-rule="nonzero" clip-path="url(#59e63f749f)"><g clip-rule="nonzero" clip-path="url(#10e2796b72)"><path style=" stroke:none;fill-rule:nonzero;fill:#462100;fill-opacity:1;" d="M 190.878906 165.074219 C 190.878906 165.074219 188.019531 167.480469 184.351562 166.183594 C 180.671875 164.851562 177.34375 160.878906 179.535156 155.730469 C 181.675781 150.558594 191.101562 148.933594 195.792969 153.710938 C 200.519531 158.46875 198.1875 164.34375 192.085938 166.03125 C 192.085938 166.03125 196.121094 166.726562 198.085938 163.675781 C 200.101562 160.644531 199.933594 155.605469 195.324219 152.175781 C 190.726562 148.78125 181.382812 148.28125 178.207031 153.84375 C 175.046875 159.445312 179.925781 165.300781 183.050781 167.003906 C 186.195312 168.652344 189.804688 166.859375 190.878906 165.074219 Z M 190.878906 165.074219 "/></g></g></g></g><g clip-rule="nonzero" clip-path="url(#56cb663b08)"><g clip-rule="nonzero" clip-path="url(#fe12284472)"><g clip-rule="nonzero" clip-path="url(#e74f6d9798)"><g clip-rule="nonzero" clip-path="url(#ac2a60f1b0)"><path style=" stroke:none;fill-rule:nonzero;fill:#ffffff;fill-opacity:1;" d="M 154.542969 156.679688 C 154.722656 151.9375 158.734375 148.246094 163.523438 148.398438 C 168.308594 148.554688 172.09375 152.558594 171.898438 157.265625 C 171.71875 162.007812 167.671875 165.71875 162.882812 165.5625 C 158.09375 165.40625 154.363281 161.425781 154.542969 156.679688 Z M 154.542969 156.679688 "/></g></g></g></g><g clip-rule="nonzero" clip-path="url(#f448732380)"><g clip-rule="nonzero" clip-path="url(#dde3740e9a)"><g clip-rule="nonzero" clip-path="url(#1e1e608f36)"><g clip-rule="nonzero" clip-path="url(#bd5cfb5e83)"><path style=" stroke:none;fill-rule:nonzero;fill:#cccccc;fill-opacity:1;" d="M 161.652344 163.8125 C 166.457031 164.007812 170.507812 160.296875 170.6875 155.554688 C 170.734375 153.976562 170.347656 152.539062 169.679688 151.269531 C 171.140625 152.828125 171.992188 154.957031 171.898438 157.265625 C 171.71875 162.007812 167.671875 165.71875 162.882812 165.5625 C 159.671875 165.449219 156.925781 163.585938 155.515625 160.984375 C 157.058594 162.640625 159.214844 163.730469 161.652344 163.8125 Z M 161.652344 163.8125 "/></g></g></g></g><g clip-rule="nonzero" clip-path="url(#bf4bba20d7)"><g clip-rule="nonzero" clip-path="url(#b23679ed5a)"><g clip-rule="nonzero" clip-path="url(#2deda3b829)"><g clip-rule="nonzero" clip-path="url(#a000f3eaa7)"><path style=" stroke:none;fill-rule:nonzero;fill:#462100;fill-opacity:1;" d="M 169.832031 152.582031 C 169.832031 152.582031 171.414062 155.691406 168.921875 158.65625 C 166.445312 161.65625 157.335938 165.722656 155.84375 159.867188 C 154.3125 154.023438 162.878906 148.984375 165.613281 149.339844 C 168.363281 149.734375 168.957031 151.351562 168.957031 151.351562 C 168.957031 151.351562 168.613281 149.273438 165.175781 148.726562 C 161.734375 148.175781 154.726562 153.3125 155.109375 158.128906 C 155.480469 162.910156 159.800781 164.90625 163.921875 162.855469 C 168.046875 160.804688 172.257812 159.066406 169.832031 152.582031 Z M 169.832031 152.582031 "/></g></g></g></g><g clip-rule="nonzero" clip-path="url(#fc3de66760)"><g clip-rule="nonzero" clip-path="url(#1176605c76)"><g clip-rule="nonzero" clip-path="url(#e9b902ff39)"><g clip-rule="nonzero" clip-path="url(#f8f601b7f7)"><path style=" stroke:none;fill-rule:nonzero;fill:#462100;fill-opacity:1;" d="M 170.46875 152.402344 C 170.46875 152.402344 172.125 153.792969 171.199219 157.828125 C 170.238281 161.878906 166.894531 165.777344 161.210938 165.511719 C 155.53125 165.242188 151.777344 159.625 153.664062 154.386719 C 155.585938 149.128906 162.527344 142.773438 169.207031 148.042969 C 169.207031 148.042969 161.664062 146.429688 157.363281 152.066406 C 153.097656 157.691406 153.996094 163.089844 160.308594 163.582031 C 166.621094 164.070312 171.875 158.476562 170.46875 152.402344 Z M 170.46875 152.402344 "/></g></g></g></g><g clip-rule="nonzero" clip-path="url(#c68103fd21)"><g clip-rule="nonzero" clip-path="url(#1328473efa)"><g clip-rule="nonzero" clip-path="url(#bb9cac41a6)"><g clip-rule="nonzero" clip-path="url(#a3158f704f)"><path style=" stroke:none;fill-rule:nonzero;fill:#462100;fill-opacity:1;" d="M 170.738281 160.109375 C 170.738281 160.109375 167.820312 167.964844 159.953125 165.0625 C 152.144531 162.183594 153.171875 157.125 154.175781 154.125 C 155.179688 151.121094 161.296875 145.5625 169.125 149.324219 C 176.949219 153.085938 178.136719 159.164062 171.230469 163.59375 C 171.230469 163.59375 178.394531 156.300781 171.179688 151.34375 C 163.949219 146.351562 156.433594 149.972656 154.589844 156.261719 C 152.746094 162.550781 161.515625 169.917969 170.738281 160.109375 Z M 170.738281 160.109375 "/></g></g></g></g><g clip-rule="nonzero" clip-path="url(#90ddcf2a6f)"><g clip-rule="nonzero" clip-path="url(#3d0a2822fb)"><g clip-rule="nonzero" clip-path="url(#d15e882370)"><g clip-rule="nonzero" clip-path="url(#5c2e3d12cb)"><path style=" stroke:none;fill-rule:nonzero;fill:#462100;fill-opacity:1;" d="M 162.460938 171.738281 L 158.246094 198.054688 C 158.246094 198.054688 157.71875 199.96875 161.222656 199.511719 C 164.691406 199.070312 174.527344 197.671875 178.269531 199.46875 C 182.050781 201.25 182.941406 198.609375 182.445312 195.75 C 181.953125 192.890625 180.945312 175.3125 176.847656 172.464844 C 172.75 169.617188 162.128906 170.101562 162.460938 171.738281 Z M 162.460938 171.738281 "/></g></g></g></g><g clip-rule="nonzero" clip-path="url(#89ca30dd87)"><g clip-rule="nonzero" clip-path="url(#2fca2a2511)"><g clip-rule="nonzero" clip-path="url(#f3d81ab4e0)"><g clip-rule="nonzero" clip-path="url(#499dc81afc)"><path style=" stroke:none;fill-rule:nonzero;fill:#462100;fill-opacity:1;" d="M 151.976562 197.769531 C 151.976562 197.769531 149.625 202.007812 150.449219 203.4375 C 151.261719 204.828125 157.15625 202.960938 160.390625 203.550781 C 163.664062 204.125 156.757812 202.019531 154.125 202.640625 C 151.53125 203.246094 151.433594 200.175781 151.976562 197.769531 Z M 151.976562 197.769531 "/></g></g></g></g><g clip-rule="nonzero" clip-path="url(#0992d72693)"><g clip-rule="nonzero" clip-path="url(#ba9052a2c3)"><g clip-rule="nonzero" clip-path="url(#f3a94618af)"><g clip-rule="nonzero" clip-path="url(#11f640c8d3)"><path style=" stroke:none;fill-rule:nonzero;fill:#462100;fill-opacity:1;" d="M 178.308594 202.519531 C 178.308594 202.519531 186.460938 203.253906 184.144531 196.1875 C 184.144531 196.1875 188.90625 205.246094 178.308594 202.519531 Z M 178.308594 202.519531 "/></g></g></g></g><g clip-rule="nonzero" clip-path="url(#6a38670815)"><g clip-rule="nonzero" clip-path="url(#08c9b75060)"><g clip-rule="nonzero" clip-path="url(#afdeba2eee)"><g clip-rule="nonzero" clip-path="url(#302038400d)"><path style=" stroke:none;fill-rule:nonzero;fill:#ffffff;fill-opacity:1;" d="M 159.582031 198.160156 C 159.746094 198.222656 160.179688 198.304688 161.015625 198.175781 L 161.535156 198.136719 C 168.117188 197.265625 175.367188 196.605469 178.863281 198.238281 C 180.039062 198.808594 180.578125 198.714844 180.695312 198.667969 C 181.164062 198.515625 181.347656 197.367188 181.109375 195.957031 C 181.078125 195.570312 181.007812 194.980469 180.894531 194.183594 C 177.175781 194.554688 169.542969 194.839844 160.507812 192.433594 Z M 159.582031 198.160156 "/></g></g></g></g><g clip-rule="nonzero" clip-path="url(#1853fda722)"><g clip-rule="nonzero" clip-path="url(#9c021e82ff)"><g clip-rule="nonzero" clip-path="url(#710a0c4b4a)"><g clip-rule="nonzero" clip-path="url(#4ca12e9862)"><path style=" stroke:none;fill-rule:nonzero;fill:#ffffff;fill-opacity:1;" d="M 176.113281 173.578125 C 173.210938 171.558594 166.199219 171.40625 163.8125 172.191406 C 163.773438 172.207031 163.773438 172.207031 163.734375 172.222656 L 162.859375 177.75 L 178.742188 179.488281 C 178.066406 176.617188 177.1875 174.324219 176.113281 173.578125 Z M 176.113281 173.578125 "/></g></g></g></g><g clip-rule="nonzero" clip-path="url(#603c7ad28d)"><g clip-rule="nonzero" clip-path="url(#383f279798)"><g clip-rule="nonzero" clip-path="url(#2bc6fe49da)"><g clip-rule="nonzero" clip-path="url(#10fd54c06f)"><path style=" stroke:none;fill-rule:nonzero;fill:#cccccc;fill-opacity:1;" d="M 176.113281 173.578125 C 173.210938 171.558594 166.199219 171.40625 163.8125 172.191406 C 163.773438 172.207031 163.773438 172.207031 163.734375 172.222656 L 163.664062 172.476562 C 164.773438 172.363281 171.613281 171.785156 173.101562 173.515625 C 174.121094 174.773438 174.125 177.304688 173.980469 178.96875 L 178.742188 179.488281 C 178.066406 176.617188 177.1875 174.324219 176.113281 173.578125 Z M 176.113281 173.578125 "/></g></g></g></g><g clip-rule="nonzero" clip-path="url(#705b6945af)"><g clip-rule="nonzero" clip-path="url(#54089fa670)"><g clip-rule="nonzero" clip-path="url(#a4fbafd080)"><g clip-rule="nonzero" clip-path="url(#746b6bb4b3)"><path style=" stroke:none;fill-rule:nonzero;fill:#cccccc;fill-opacity:1;" d="M 173.101562 197.25 C 175.433594 197.289062 177.472656 197.582031 178.863281 198.238281 C 180.039062 198.808594 180.578125 198.714844 180.695312 198.667969 C 181.164062 198.515625 181.347656 197.367188 181.109375 195.957031 C 181.078125 195.570312 181.007812 194.980469 180.894531 194.183594 C 179.007812 194.355469 176.144531 194.542969 172.535156 194.332031 C 173.242188 195.058594 173.671875 196.386719 173.101562 197.25 Z M 173.101562 197.25 "/></g></g></g></g><g clip-rule="nonzero" clip-path="url(#54fe47e8cd)"><g clip-rule="nonzero" clip-path="url(#964ec6dfa1)"><g clip-rule="nonzero" clip-path="url(#8bdb182c5a)"><g clip-rule="nonzero" clip-path="url(#c32a276722)"><g clip-rule="nonzero" clip-path="url(#10718ff7e1)"><path style=" stroke:none;fill-rule:nonzero;fill:#000000;fill-opacity:1;" d="M 142.878906 149.15625 L 142.4375 155.4375 L 145.566406 155.65625 L 145.347656 158.796875 L 148.476562 159.015625 L 148.257812 162.152344 L 151.382812 162.375 L 151.164062 165.511719 L 166.808594 166.609375 L 167.027344 163.46875 L 170.15625 163.6875 L 170.375 160.550781 L 173.503906 160.769531 L 173.726562 157.628906 L 179.984375 158.066406 L 179.761719 161.207031 L 182.890625 161.425781 L 182.671875 164.566406 L 185.800781 164.785156 L 185.582031 167.925781 L 201.222656 169.019531 L 201.445312 165.878906 L 204.574219 166.101562 L 204.792969 162.960938 L 207.921875 163.179688 L 208.140625 160.039062 L 211.269531 160.257812 L 211.710938 153.980469 L 142.878906 149.15625 "/></g></g></g></g></g><g clip-rule="nonzero" clip-path="url(#2b0e0138c2)"><g clip-rule="nonzero" clip-path="url(#65b725d955)"><g clip-rule="nonzero" clip-path="url(#1e32ae6a69)"><g clip-rule="nonzero" clip-path="url(#b53424f2f6)"><path style=" stroke:none;fill-rule:nonzero;fill:#ffffff;fill-opacity:1;" d="M 154.734375 159.453125 L 151.605469 159.234375 L 151.824219 156.09375 L 154.953125 156.3125 L 154.734375 159.453125 "/></g></g></g></g><g clip-rule="nonzero" clip-path="url(#2974f76998)"><g clip-rule="nonzero" clip-path="url(#1256d557c1)"><g clip-rule="nonzero" clip-path="url(#8e90d027a1)"><g clip-rule="nonzero" clip-path="url(#9a153b636e)"><path style=" stroke:none;fill-rule:nonzero;fill:#ffffff;fill-opacity:1;" d="M 157.640625 162.8125 L 154.511719 162.59375 L 154.734375 159.453125 L 157.863281 159.671875 L 157.640625 162.8125 "/></g></g></g></g><g clip-rule="nonzero" clip-path="url(#f11b05c459)"><g clip-rule="nonzero" clip-path="url(#54efad7067)"><g clip-rule="nonzero" clip-path="url(#3f1e746ec0)"><g clip-rule="nonzero" clip-path="url(#6fc0847038)"><path style=" stroke:none;fill-rule:nonzero;fill:#ffffff;fill-opacity:1;" d="M 151.824219 156.09375 L 148.695312 155.875 L 148.914062 152.734375 L 152.042969 152.953125 L 151.824219 156.09375 "/></g></g></g></g><g clip-rule="nonzero" clip-path="url(#b231a2ba9a)"><g clip-rule="nonzero" clip-path="url(#c1b9bbf202)"><g clip-rule="nonzero" clip-path="url(#ed6fe2a3c9)"><g clip-rule="nonzero" clip-path="url(#8b9f0807da)"><path style=" stroke:none;fill-rule:nonzero;fill:#ffffff;fill-opacity:1;" d="M 160.992188 159.890625 L 157.863281 159.671875 L 158.082031 156.53125 L 161.210938 156.753906 L 160.992188 159.890625 "/></g></g></g></g><g clip-rule="nonzero" clip-path="url(#60374e98a5)"><g clip-rule="nonzero" clip-path="url(#d56e356666)"><g clip-rule="nonzero" clip-path="url(#3c408ee7ee)"><g clip-rule="nonzero" clip-path="url(#cd3d2fc17e)"><path style=" stroke:none;fill-rule:nonzero;fill:#ffffff;fill-opacity:1;" d="M 163.898438 163.25 L 160.769531 163.03125 L 160.992188 159.890625 L 164.121094 160.109375 L 163.898438 163.25 "/></g></g></g></g><g clip-rule="nonzero" clip-path="url(#690f60be76)"><g clip-rule="nonzero" clip-path="url(#4bfbe0e11f)"><g clip-rule="nonzero" clip-path="url(#9770c511e6)"><g clip-rule="nonzero" clip-path="url(#1b82761c5b)"><path style=" stroke:none;fill-rule:nonzero;fill:#ffffff;fill-opacity:1;" d="M 158.082031 156.53125 L 154.953125 156.3125 L 155.171875 153.175781 L 158.300781 153.394531 L 158.082031 156.53125 "/></g></g></g></g><g clip-rule="nonzero" clip-path="url(#03ca254b37)"><g clip-rule="nonzero" clip-path="url(#18994d8e35)"><g clip-rule="nonzero" clip-path="url(#c5190c0a8b)"><g clip-rule="nonzero" clip-path="url(#6a81fa5bce)"><path style=" stroke:none;fill-rule:nonzero;fill:#ffffff;fill-opacity:1;" d="M 189.148438 161.863281 L 186.019531 161.644531 L 186.238281 158.503906 L 189.367188 158.726562 L 189.148438 161.863281 "/></g></g></g></g><g clip-rule="nonzero" clip-path="url(#527bb759a0)"><g clip-rule="nonzero" clip-path="url(#0610fc4f12)"><g clip-rule="nonzero" clip-path="url(#145a99d5a6)"><g clip-rule="nonzero" clip-path="url(#6e9198a587)"><path style=" stroke:none;fill-rule:nonzero;fill:#ffffff;fill-opacity:1;" d="M 192.058594 165.222656 L 188.929688 165.003906 L 189.148438 161.863281 L 192.277344 162.082031 L 192.058594 165.222656 "/></g></g></g></g><g clip-rule="nonzero" clip-path="url(#a5cbdf1c16)"><g clip-rule="nonzero" clip-path="url(#409d7c5065)"><g clip-rule="nonzero" clip-path="url(#d42e60aeae)"><g clip-rule="nonzero" clip-path="url(#0664c42a7b)"><path style=" stroke:none;fill-rule:nonzero;fill:#ffffff;fill-opacity:1;" d="M 186.238281 158.503906 L 183.113281 158.285156 L 183.332031 155.148438 L 186.460938 155.367188 L 186.238281 158.503906 "/></g></g></g></g><g clip-rule="nonzero" clip-path="url(#2614d66e3c)"><g clip-rule="nonzero" clip-path="url(#4e053e1cb0)"><g clip-rule="nonzero" clip-path="url(#e70e8589de)"><g clip-rule="nonzero" clip-path="url(#c4e6424a9d)"><path style=" stroke:none;fill-rule:nonzero;fill:#ffffff;fill-opacity:1;" d="M 195.40625 162.300781 L 192.277344 162.082031 L 192.496094 158.945312 L 195.625 159.164062 L 195.40625 162.300781 "/></g></g></g></g><g clip-rule="nonzero" clip-path="url(#bd443ad6ff)"><g clip-rule="nonzero" clip-path="url(#4f4376640e)"><g clip-rule="nonzero" clip-path="url(#e4c70984b3)"><g clip-rule="nonzero" clip-path="url(#eff6cec56d)"><path style=" stroke:none;fill-rule:nonzero;fill:#ffffff;fill-opacity:1;" d="M 198.316406 165.660156 L 195.1875 165.441406 L 195.40625 162.300781 L 198.535156 162.523438 L 198.316406 165.660156 "/></g></g></g></g><g clip-rule="nonzero" clip-path="url(#5a168264ea)"><g clip-rule="nonzero" clip-path="url(#70f271183b)"><g clip-rule="nonzero" clip-path="url(#a079ad5ced)"><g clip-rule="nonzero" clip-path="url(#1428a91054)"><path style=" stroke:none;fill-rule:nonzero;fill:#ffffff;fill-opacity:1;" d="M 192.496094 158.945312 L 189.367188 158.726562 L 189.589844 155.585938 L 192.71875 155.804688 L 192.496094 158.945312 "/></g></g></g></g><g clip-rule="nonzero" clip-path="url(#546c1c16c1)"><g clip-rule="nonzero" clip-path="url(#59acc9bcfc)"><g clip-rule="nonzero" clip-path="url(#81932a6cec)"><g clip-rule="nonzero" clip-path="url(#839801b187)"><path style=" stroke:none;fill-rule:evenodd;fill:#000000;fill-opacity:1;" d="M 174.191406 146.445312 C 174.15625 146.558594 174.136719 146.679688 174.09375 146.792969 C 174.050781 146.898438 173.992188 147.003906 173.929688 147.101562 C 173.898438 147.148438 173.738281 147.394531 173.445312 147.597656 C 173.152344 147.800781 172.863281 147.867188 172.808594 147.878906 C 172.691406 147.90625 172.570312 147.921875 172.453125 147.921875 C 172.222656 147.929688 172.222656 147.925781 172 147.882812 C 166.292969 146.710938 165.351562 145.523438 158.027344 142.074219 C 155.042969 140.664062 152.265625 139.480469 150.507812 138.742188 C 150.414062 138.703125 150.410156 138.707031 150.328125 138.652344 C 150.273438 138.621094 149.984375 138.441406 149.890625 138.050781 C 149.847656 137.859375 149.875 137.699219 149.878906 137.671875 C 149.914062 137.472656 150.007812 137.332031 150.023438 137.304688 C 150.058594 137.257812 150.242188 136.972656 150.640625 136.886719 C 150.835938 136.839844 151 136.867188 151.027344 136.875 C 151.09375 136.882812 151.160156 136.90625 151.222656 136.925781 C 151.285156 136.941406 152.195312 137.257812 152.277344 137.285156 C 164.011719 141.328125 165.890625 142.988281 169.851562 143.894531 C 171.265625 144.214844 172.660156 144.375 172.695312 144.382812 C 172.8125 144.417969 172.933594 144.4375 173.050781 144.480469 C 173.152344 144.519531 173.742188 144.746094 174.050781 145.414062 C 174.101562 145.519531 174.140625 145.628906 174.167969 145.738281 C 174.207031 145.914062 174.214844 146.058594 174.214844 146.085938 C 174.214844 146.085938 174.191406 146.445312 174.191406 146.445312 Z M 174.191406 146.445312 "/></g></g></g></g><g clip-rule="nonzero" clip-path="url(#a7c4130ee5)"><g clip-rule="nonzero" clip-path="url(#a6e94e4afd)"><g clip-rule="nonzero" clip-path="url(#bdd1e20ed4)"><g clip-rule="nonzero" clip-path="url(#3a7ee3ebff)"><path style=" stroke:none;fill-rule:evenodd;fill:#000000;fill-opacity:1;" d="M 183.636719 147.148438 C 183.640625 147.027344 183.636719 146.90625 183.65625 146.789062 C 183.675781 146.675781 183.707031 146.5625 183.75 146.453125 C 183.769531 146.402344 183.875 146.128906 184.121094 145.871094 C 184.363281 145.613281 184.632812 145.492188 184.683594 145.46875 C 184.792969 145.417969 184.90625 145.378906 185.023438 145.351562 C 185.277344 145.289062 185.28125 145.300781 185.546875 145.300781 C 190.5625 145.285156 191.539062 144.480469 198.695312 142.691406 C 202.273438 141.796875 205.5625 141.121094 207.648438 140.703125 C 207.746094 140.683594 207.746094 140.683594 207.847656 140.679688 C 207.90625 140.675781 208.25 140.667969 208.554688 140.9375 C 208.703125 141.066406 208.773438 141.210938 208.785156 141.238281 C 208.8125 141.292969 208.964844 141.609375 208.820312 141.992188 C 208.679688 142.371094 208.367188 142.511719 208.3125 142.535156 C 208.207031 142.582031 208.203125 142.574219 207.054688 142.890625 C 194.945312 146.257812 193.195312 147.78125 188.675781 148.519531 C 187.496094 148.710938 186.371094 148.804688 185.535156 148.863281 C 185.378906 148.875 185.195312 148.847656 185.164062 148.839844 C 185.054688 148.824219 184.433594 148.722656 183.988281 148.132812 C 183.917969 148.039062 183.859375 147.9375 183.808594 147.835938 C 183.730469 147.671875 183.695312 147.53125 183.6875 147.503906 C 183.6875 147.503906 183.636719 147.148438 183.636719 147.148438 Z M 183.636719 147.148438 "/></g></g></g></g><g clip-rule="nonzero" clip-path="url(#65408ee351)"><g clip-rule="nonzero" clip-path="url(#02b9c93ebb)"><g clip-rule="nonzero" clip-path="url(#4915f07225)"><g clip-rule="nonzero" clip-path="url(#f627712bb6)"><path style=" stroke:none;fill-rule:nonzero;fill:#be1931;fill-opacity:1;" d="M 179.023438 133.527344 L 176.289062 131.277344 L 177.414062 129.910156 C 179.148438 127.800781 180.960938 125.359375 180.496094 123.136719 C 180.132812 121.40625 178.390625 119.738281 175.316406 118.179688 L 173.738281 117.378906 L 175.335938 114.222656 L 176.917969 115.023438 C 181.054688 117.121094 183.359375 119.539062 183.960938 122.410156 C 184.816406 126.484375 181.777344 130.175781 180.144531 132.160156 Z M 200.449219 136.699219 L 199.082031 135.574219 C 196.972656 133.835938 194.53125 132.023438 192.308594 132.488281 C 190.582031 132.851562 188.910156 134.59375 187.351562 137.671875 L 186.550781 139.25 L 183.394531 137.648438 L 184.195312 136.070312 C 186.292969 131.929688 188.703125 129.625 191.582031 129.023438 C 195.65625 128.167969 199.347656 131.207031 201.332031 132.839844 L 202.699219 133.964844 Z M 206.816406 129.59375 L 205.238281 128.792969 C 201.101562 126.695312 198.796875 124.277344 198.195312 121.402344 C 197.339844 117.328125 200.378906 113.636719 202.011719 111.652344 L 203.136719 110.285156 L 205.871094 112.535156 L 204.746094 113.902344 C 203.007812 116.015625 201.195312 118.453125 201.660156 120.675781 C 202.023438 122.40625 203.765625 124.074219 206.839844 125.632812 L 208.417969 126.433594 Z M 191.925781 114.367188 C 191.484375 114.554688 191.035156 114.695312 190.574219 114.792969 C 186.5 115.644531 182.808594 112.605469 180.824219 110.976562 L 179.457031 109.851562 L 181.707031 107.117188 L 183.078125 108.242188 C 185.1875 109.976562 187.625 111.792969 189.847656 111.324219 C 191.574219 110.964844 193.246094 109.222656 194.804688 106.144531 L 195.605469 104.566406 L 198.765625 106.167969 L 197.964844 107.746094 C 196.203125 111.21875 194.214844 113.402344 191.925781 114.367188 Z M 191.925781 114.367188 "/></g></g></g></g></g></svg>